<mxfile host="app.diagrams.net" modified="2022-05-19T11:33:45.328Z" agent="5.0 (Windows NT 10.0; Win64; x64) AppleWebKit/537.36 (KHTML, like Gecko) Chrome/101.0.4951.67 Safari/537.36" etag="juNwjR0JEog6g5oXRQzn" version="18.0.7" type="github">
  <diagram id="kVVNvzTN08mqrJiH0XA9" name="Java SPI">
    <mxGraphModel dx="1022" dy="428" grid="1" gridSize="10" guides="1" tooltips="1" connect="1" arrows="1" fold="1" page="1" pageScale="1" pageWidth="827" pageHeight="1169" math="0" shadow="0">
      <root>
        <mxCell id="0" />
        <mxCell id="1" parent="0" />
        <mxCell id="KCVnxJGxcXCpIspmgDr1-1" value="&lt;font style=&quot;font-size: 18px;&quot;&gt;Java SPI运行流程&lt;/font&gt;" style="text;html=1;strokeColor=none;fillColor=none;align=center;verticalAlign=middle;whiteSpace=wrap;rounded=0;" vertex="1" parent="1">
          <mxGeometry x="80" y="240" width="160" height="30" as="geometry" />
        </mxCell>
        <mxCell id="KCVnxJGxcXCpIspmgDr1-2" value="&lt;font style=&quot;font-size: 12px;&quot;&gt;Application&lt;br&gt;应用程序&lt;/font&gt;" style="rounded=0;whiteSpace=wrap;html=1;fontSize=18;fillColor=#f5f5f5;strokeColor=#99CCFF;fontColor=#333333;perimeterSpacing=0;strokeWidth=3;" vertex="1" parent="1">
          <mxGeometry x="90" y="320" width="120" height="60" as="geometry" />
        </mxCell>
        <mxCell id="KCVnxJGxcXCpIspmgDr1-3" value="ServiceLoader&lt;br&gt;服务发现&amp;amp;加载" style="ellipse;whiteSpace=wrap;html=1;fontSize=12;strokeColor=#99CCFF;strokeWidth=3;fillColor=default;" vertex="1" parent="1">
          <mxGeometry x="90" y="430" width="120" height="80" as="geometry" />
        </mxCell>
        <mxCell id="KCVnxJGxcXCpIspmgDr1-5" value="Service&lt;br&gt;服务接口" style="rounded=1;whiteSpace=wrap;html=1;fontSize=12;strokeColor=#99CCFF;strokeWidth=3;fillColor=default;" vertex="1" parent="1">
          <mxGeometry x="90" y="560" width="120" height="60" as="geometry" />
        </mxCell>
        <mxCell id="KCVnxJGxcXCpIspmgDr1-6" value="面向Service的&lt;br&gt;接口编程" style="rounded=0;whiteSpace=wrap;html=1;fontSize=12;strokeColor=#99CCFF;strokeWidth=3;fillColor=default;" vertex="1" parent="1">
          <mxGeometry x="90" y="670" width="120" height="60" as="geometry" />
        </mxCell>
        <mxCell id="KCVnxJGxcXCpIspmgDr1-7" value="Service Provider&lt;br&gt;服务实现" style="rounded=1;whiteSpace=wrap;html=1;fontSize=12;strokeColor=#99CCFF;strokeWidth=3;fillColor=default;" vertex="1" parent="1">
          <mxGeometry x="354" y="320" width="120" height="60" as="geometry" />
        </mxCell>
        <mxCell id="KCVnxJGxcXCpIspmgDr1-8" value="Service Provider&lt;br&gt;服务实现" style="rounded=1;whiteSpace=wrap;html=1;fontSize=12;strokeColor=#99CCFF;strokeWidth=3;fillColor=default;" vertex="1" parent="1">
          <mxGeometry x="354" y="400" width="120" height="60" as="geometry" />
        </mxCell>
        <mxCell id="KCVnxJGxcXCpIspmgDr1-9" value="Service Provider&lt;br&gt;服务实现" style="rounded=1;whiteSpace=wrap;html=1;fontSize=12;strokeColor=#99CCFF;strokeWidth=3;fillColor=default;" vertex="1" parent="1">
          <mxGeometry x="354" y="480" width="120" height="60" as="geometry" />
        </mxCell>
      </root>
    </mxGraphModel>
  </diagram>
</mxfile>
